<?xml version="1.0" standalone="no"?>
<svg
  width="600"
  height="600"
  viewBox="0 0 600 600"
  xmlns="http://www.w3.org/2000/svg"
>
  <g transform="translate(300,300)">
    <path d="M103.9,-130C136.1,-119.6,164.6,-91.2,192.6,-51.6C220.6,-11.9,248.2,38.8,237.8,79.2C227.4,119.6,178.9,149.6,133,177.5C87,205.4,43.5,231.2,-3.2,235.7C-50,240.1,-99.9,223.2,-123.2,187.9C-146.5,152.7,-143.2,99.1,-158.1,51.7C-173.1,4.3,-206.4,-36.8,-205.1,-74.7C-203.9,-112.6,-168.1,-147.3,-128.1,-155.2C-88.2,-163,-44.1,-144,-4.1,-138.3C35.9,-132.7,71.7,-140.4,103.9,-130Z" fill="#f53232" />
  </g>
</svg>
  